<?xml version="1.0" encoding="utf-8"?>
<!-- Generator: Adobe Illustrator 15.0.0, SVG Export Plug-In . SVG Version: 6.00 Build 0)  -->
<!DOCTYPE svg PUBLIC "-//W3C//DTD SVG 1.1//EN" "http://www.w3.org/Graphics/SVG/1.1/DTD/svg11.dtd">
<svg version="1.1" id="Layer_1" xmlns="http://www.w3.org/2000/svg" xmlns:xlink="http://www.w3.org/1999/xlink" x="0px" y="0px"
	 width="1600px" height="940px" viewBox="0 0 1600 940" enable-background="new 0 0 1600 940" xml:space="preserve">
<path fill="#EE2D23" d="M1599.531,606.242c0-164.781-127.672-314.232-374.625-314.232h-245.32V0.551H770.425l-84.111,154.697
	L598.291,0.551H389.15v343.469c-42.125-39.895-98.869-61.871-160.223-61.871c-62.494,0-120.441,22.943-163.146,64.627
	c-20.752,20.234-36.998,43.965-48.302,70.475C5.881,444.45,0,473.457,0,503.473v1.07c0,59.645,23.172,115.109,65.242,156.168
	c42.35,41.328,100.732,64.082,163.248,64.082c62.494,0,119.793-22.949,162.494-64.625c20.748-20.266,37.002-43.977,48.316-70.492
	c9.67-22.68,15.303-46.652,16.926-71.387h115.963V305.855l114.129,162.908l110.218-162.908v212.434h179.878v421.16h241.109
	c248.694,0,382.477-137.922,382.477-323.879L1599.531,606.242z M301.298,504.543c0,38.672-24.852,74.828-72.375,74.828
	c-48.068,0-73.992-36.047-73.992-75.898v-1.09h-0.008c0-38.666,25.676-75.884,73.559-75.884c47.701,0,72.812,36.635,72.812,76.974
	L301.298,504.543L301.298,504.543z M1374.562,613.363c0,79.465-61.984,114.074-135.445,114.074h-42.371V497.666h41.742
	c74.09,0,136.074,34.681,136.074,114.164V613.363L1374.562,613.363z"/>
</svg>
