<?xml version="1.0" encoding="utf-8"?>
<!-- Generator: Adobe Illustrator 15.0.0, SVG Export Plug-In . SVG Version: 6.00 Build 0)  -->
<!DOCTYPE svg PUBLIC "-//W3C//DTD SVG 1.1//EN" "http://www.w3.org/Graphics/SVG/1.1/DTD/svg11.dtd">
<svg version="1.1" id="Layer_1" xmlns="http://www.w3.org/2000/svg" xmlns:xlink="http://www.w3.org/1999/xlink" x="0px" y="0px"
	 width="3000px" height="1500px" viewBox="0 0 3000 1500" enable-background="new 0 0 3000 1500" xml:space="preserve">
<path fill="#FFFFFF" d="M3000,1383.09V961.035c-43.754,50.624-116.021,73.843-196.003,73.843h-74.933V628.531h73.819
	c80.707,0,153.269,23.29,197.116,74.011V290.601c-66.395-16.671-140.132-25.773-221.135-25.773l-435.365-0.031v310.491h-409.484
	l-239.552,440.541l-250.646-440.541h-308.151c-12-148.904-76.153-287.906-183.722-392.85C831.349,64.749,666.885,0,488.907,0
	C310.903,0,145.902,65.385,24.298,184.084C15.938,192.243,7.844,200.605,0,209.154V1202.5v45.302V1500h2978.167H3000V1383.09z
	 M694.609,633.469c0,110.099-70.324,213.087-205.634,213.087c-136.889,0-210.3-102.652-210.3-216.191v-3.088
	c0-110.116,72.67-216.113,208.995-216.113c135.89,0,206.939,104.358,206.939,219.201V633.469z"/>
</svg>
