<?xml version="1.0" encoding="iso-8859-1"?>
<!-- Generator: Adobe Illustrator 16.0.0, SVG Export Plug-In . SVG Version: 6.00 Build 0)  -->
<!DOCTYPE svg PUBLIC "-//W3C//DTD SVG 1.1//EN" "http://www.w3.org/Graphics/SVG/1.1/DTD/svg11.dtd">
<svg version="1.1" id="Layer_1" xmlns="http://www.w3.org/2000/svg" xmlns:xlink="http://www.w3.org/1999/xlink" x="0px" y="0px"
	 width="1600px" height="940px" viewBox="0 0 1600 940" style="enable-background:new 0 0 1600 940;" xml:space="preserve">
<path style="fill:#EE2D23;" d="M1617.531-673.207c0-164.774-127.672-314.225-374.625-314.225h-245.32v-291.459h-209.16
	l-84.111,154.697l-88.023-154.697H407.15v343.469c-42.125-39.895-98.869-61.871-160.223-61.871
	c-62.494,0-120.441,22.943-163.146,64.627c-20.752,20.234-36.998,43.965-48.302,70.475C23.881-834.993,18-805.985,18-775.971v1.07
	c0,59.642,23.172,115.103,65.242,156.16c42.35,41.325,100.732,64.079,163.248,64.079c62.494,0,119.793-22.948,162.494-64.622
	c20.748-20.266,37.002-43.976,48.316-70.489c9.67-22.68,15.303-46.65,16.926-71.384h115.963v-212.432l114.129,162.908
	l110.218-162.908v212.432h179.878v421.14h241.109c248.693,0,382.477-137.916,382.477-323.863L1617.531-673.207z M319.298-774.901
	c0,38.67-24.852,74.824-72.375,74.824c-48.067,0-73.991-36.045-73.991-75.894v-1.09h-0.009c0-38.665,25.677-75.883,73.56-75.883
	c47.701,0,72.812,36.636,72.812,76.973L319.298-774.901L319.298-774.901z M1392.562-666.087
	c0,79.461-61.984,114.069-135.445,114.069h-42.371v-229.759h41.742c74.09,0,136.074,34.679,136.074,114.157V-666.087
	L1392.562-666.087z"/>
<image style="overflow:visible;" width="3000" height="3000" xlink:href="79BCD4D.png"  transform="matrix(0.5254 0 0 0.5254 11.9998 -318.1731)">
</image>
</svg>
