<?xml version="1.0" encoding="iso-8859-1"?>
<!-- Generator: Adobe Illustrator 16.0.0, SVG Export Plug-In . SVG Version: 6.00 Build 0)  -->
<!DOCTYPE svg PUBLIC "-//W3C//DTD SVG 1.1//EN" "http://www.w3.org/Graphics/SVG/1.1/DTD/svg11.dtd">
<svg version="1.1" id="&#x56FE;&#x5C42;_1" xmlns="http://www.w3.org/2000/svg" xmlns:xlink="http://www.w3.org/1999/xlink" x="0px"
	 y="0px" width="2000px" height="320px" viewBox="0 0 2000 320" enable-background="new 0 0 2000 320" xml:space="preserve">
<g>
	<rect x="9.355" y="30.17" fill="#1B577F" width="311.783" height="51.681"/>
	<rect x="9.355" y="136.321" fill="#1B577F" width="311.783" height="51.682"/>
	<rect x="9.355" y="242.471" fill="#1B577F" width="311.783" height="51.684"/>
	<rect x="691.509" y="30.17" fill="#1B577F" width="311.783" height="51.681"/>
	<rect x="691.509" y="136.321" fill="#1B577F" width="311.783" height="51.682"/>
	<rect x="691.509" y="242.471" fill="#1B577F" width="311.783" height="51.684"/>
	<rect x="347.966" y="30.17" fill="#1B577F" width="52.641" height="266.104"/>
	<rect x="608.125" y="30.17" fill="#1B577F" width="52.64" height="247.396"/>
	<path fill="#1B577F" d="M1250.479,28.041h-226.45v51.726h225.962c15.041,0,27.235,12.194,27.235,27.235
		c0,15.043-12.194,27.236-27.235,27.236h-225.962v51.724h226.45c52.976,0,78.518-31.164,78.518-69.606V97.648
		C1328.997,59.204,1303.455,28.041,1250.479,28.041z"/>
	<path fill="#1B577F" d="M1667.752,242.544h-178.049c-46.251,0-83.746-37.494-83.746-83.744c0-46.252,37.495-83.747,83.746-83.747
		h178.049V30.46h-182.574c-70.879,0-128.339,57.46-128.339,128.339c0,70.878,57.46,128.339,128.339,128.339h182.574V242.544z"/>
	<rect x="1615.547" y="138.135" fill="#1B577F" width="52.205" height="112.241"/>
	<rect x="1824.516" y="153.199" fill="#1B577F" width="52.206" height="137.041"/>
	<polygon fill="#1B577F" points="1747.931,30.46 1690.1,30.46 1783.68,124.041 1812.596,95.122 	"/>
	<polygon fill="#1B577F" points="1747.931,30.46 1718.259,30.46 1704.179,44.54 1801.081,141.441 1829.997,112.524 	"/>
	<polygon fill="#1B577F" points="1935.496,100.03 1935.496,70.359 1921.418,56.278 1824.516,153.181 1853.433,182.098 	"/>
	<polygon fill="#1B577F" points="1945.987,31.708 1883.019,94.677 1911.936,123.594 1994,41.527 1994,31.708 	"/>
	<polygon fill="#1B577F" points="619.084,277.566 649.087,224.991 404.747,30.17 370.48,30.17 347.966,69.62 608.764,277.566 	"/>
	<polygon fill="#1B577F" points="1308.985,280.912 1046.106,142.288 1024.029,184.147 1024.029,189.069 1204.221,284.093 
		1308.985,284.093 	"/>
</g>
</svg>
